<svg xmlns="http://www.w3.org/2000/svg" version="1.1" xmlns:xlink="http://www.w3.org/1999/xlink" xmlns:svgjs="http://svgjs.com/svgjs" width="512" height="512" x="0" y="0" viewBox="0 0 32 32" style="enable-background:new 0 0 512 512" xml:space="preserve" class=""><g><linearGradient id="b" x1="16" x2="16" y1="33.72" y2="-5.81" gradientUnits="userSpaceOnUse"><stop offset="0" stop-color="#0b8099"></stop><stop offset=".5" stop-color="#094180"></stop><stop offset="1" stop-color="#081266"></stop></linearGradient><linearGradient id="a" x1="-59.28" x2="-54.58" y1="-405.84" y2="-405.84" gradientTransform="rotate(-90 189.625 -232.195)" gradientUnits="userSpaceOnUse"><stop offset="0" stop-color="#e4f1f6"></stop><stop offset=".5" stop-color="#c2d5e6"></stop><stop offset="1" stop-color="#a4c3dc"></stop></linearGradient><linearGradient xlink:href="#a" id="c" x1="-57.84" x2="-62.54" y1="-405.84" y2="-405.84"></linearGradient><linearGradient xlink:href="#a" id="d" x1="15.26" x2="19.96" y1="16" y2="16"></linearGradient><linearGradient xlink:href="#a" id="e" x1="16.7" x2="12" y1="16" y2="16"></linearGradient><g fill-rule="evenodd"><path fill="url(#b)" d="m2 30 5.2-11.44a1.11 1.11 0 0 1 1-.56H9a2 2 0 0 0 2-2 2 2 0 0 0-2-2h-.8a1.11 1.11 0 0 1-1-.56L2 2l11.44 5.2a1.11 1.11 0 0 1 .56 1V9a2 2 0 0 0 2 2 2 2 0 0 0 2-2v-.8a1.11 1.11 0 0 1 .56-1L30 2l-5.28 11.44a1 1 0 0 1-.88.56H23a2 2 0 0 0-2 2 2 2 0 0 0 2 2h.88a1 1 0 0 1 .88.56L30 30l-11.44-5.28a1 1 0 0 1-.56-.88V23a2 2 0 0 0-2-2 2 2 0 0 0-2 2v.88a1 1 0 0 1-.56.88z" data-original="url(#b)" class=""></path><path fill="url(#a)" d="M15.51 15c-.08.64 1 .64 1 0v-1c0-.64-1-.64-1 0z" data-original="url(#a)"></path><path fill="url(#c)" d="M15.51 18c-.08.64 1 .64 1 0v-1c0-.64-1-.64-1 0z" data-original="url(#c)"></path><path fill="url(#d)" d="M17 15.52c-.64-.08-.64 1 0 1h1c.64 0 .64-1 0-1z" data-original="url(#d)"></path><path fill="url(#e)" d="M14 15.52c-.64-.08-.64 1 0 1h1c.64 0 .64-1 0-1z" data-original="url(#e)"></path></g></g></svg>